<mxfile host="app.diagrams.net" modified="2024-03-25T03:56:39.557Z" agent="Mozilla/5.0 (Windows NT 10.0; Win64; x64) AppleWebKit/537.36 (KHTML, like Gecko) Chrome/122.0.0.0 Safari/537.36" version="24.0.7" etag="vrJ1klYp_guF15ew2xRH" type="github">
  <diagram name="ページ1" id="Oi9slwg6Us3ZP47cyHEc">
    <mxGraphModel>
      <root>
        <mxCell id="0" />
        <mxCell id="1" parent="0" />
      </root>
    </mxGraphModel>
  </diagram>
</mxfile>
